HIERARCHY
ROOT HipCenter
{
    OFFSET 0.0 0.0 -0.0
    CHANNELS 6 Xposition Yposition Zposition Zrotation Xrotation Yrotation
    JOINT Spine
    {
        OFFSET 0.0 12.036871910095215 0.0
        CHANNELS 3 Zrotation Xrotation Yrotation
        JOINT ShoulderCenter
        {
            OFFSET 0.0 31.689437866210938 0.0
            CHANNELS 3 Zrotation Xrotation Yrotation
            JOINT LeftShoulder
            {
                OFFSET 16.907520294189453 0.0 0.0
                CHANNELS 3 Zrotation Xrotation Yrotation
                JOINT LeftElbow
                {
                    OFFSET 30.428173065185547 0.0 0.0
                    CHANNELS 3 Zrotation Xrotation Yrotation
                    JOINT LeftWrist
                    {
                        OFFSET 26.316612243652344 0.0 0.0
                        CHANNELS 3 Zrotation Xrotation Yrotation
                        JOINT LeftHand
                        {
                            OFFSET 2.591810703277588 0.0 0.0
                            CHANNELS 3 Zrotation Xrotation Yrotation
                            End Site
                            {
                                OFFSET 1.0367242097854614 0.0 0.0
                            }
                        }
                    }
                }
            }
            JOINT RightShoulder
            {
                OFFSET -16.907520294189453 0.0 0.0
                CHANNELS 3 Zrotation Xrotation Yrotation
                JOINT RightElbow
                {
                    OFFSET -30.428173065185547 0.0 0.0
                    CHANNELS 3 Zrotation Xrotation Yrotation
                    JOINT RightWrist
                    {
                        OFFSET -26.316612243652344 0.0 0.0
                        CHANNELS 3 Zrotation Xrotation Yrotation
                        JOINT RightHand
                        {
                            OFFSET -2.591810703277588 0.0 0.0
                            CHANNELS 3 Zrotation Xrotation Yrotation
                            End Site
                            {
                                OFFSET -1.0367242097854614 0.0 0.0
                            }
                        }
                    }
                }
            }
            End Site
            {
                OFFSET 0.0 12.675775527954102 0.0
            }
        }
    }
    JOINT LeftHip
    {
        OFFSET 16.76189422607422 0.0 0.0
        CHANNELS 3 Zrotation Xrotation Yrotation
        JOINT LeftKnee
        {
            OFFSET 0.0 -34.99939727783203 0.0
            CHANNELS 3 Zrotation Xrotation Yrotation
            JOINT LeftAnkle
            {
                OFFSET 0.0 -41.17267990112305 0.0
                CHANNELS 3 Zrotation Xrotation Yrotation
                JOINT LeftFoot
                {
                    OFFSET 0.0 -12.27814769744873 0.0
                    CHANNELS 3 Zrotation Xrotation Yrotation
                    End Site
                    {
                        OFFSET 0.0 0.0 4.911259174346924
                    }
                }
            }
        }
    }
    JOINT RightHip
    {
        OFFSET -16.76189422607422 0.0 0.0
        CHANNELS 3 Zrotation Xrotation Yrotation
        JOINT RightKnee
        {
            OFFSET 0.0 -34.99939727783203 0.0
            CHANNELS 3 Zrotation Xrotation Yrotation
            JOINT RightAnkle
            {
                OFFSET 0.0 -41.17267990112305 0.0
                CHANNELS 3 Zrotation Xrotation Yrotation
                JOINT RightFoot
                {
                    OFFSET 0.0 -12.27814769744873 0.0
                    CHANNELS 3 Zrotation Xrotation Yrotation
                    End Site
                    {
                        OFFSET 0.0 0.0 4.911259174346924
                    }
                }
            }
        }
    }
}
MOTION
Frames: 8
Frame Time: 0.03333333333333333
32.10000228881836 -12.0 160.5 -5.237450835248269 1.4261342688789551 -89.24413607304548 2.320681703074989 -0.5755314835088392 0.019366856780697453 1.06109260181556e-07 -8.883796976810632e-08 1.7473401636677257 94.32704906744131 -13.139514956936736 170.98212375377082 1.1435158533537395e-06 -2.021820900984531e-07 31.165013261571165 179.99997090331004 -83.80292190049089 -154.1245533705167 -2.782985346280577e-15 0.0 0.0 -96.33617832602208 -15.941192796924533 -173.86451160924847 2.813469634424904e-06 -3.349609519791494e-07 -27.487545665524014 179.9999975341183 -59.75486015872738 157.66169474427997 0.0 0.0 -3.975693351829396e-16 -3.4075167395590977 3.920744456766964 -18.170767927750262 -0.24262108260725318 8.299387644763698 -4.761366586474774 44.93690084775723 -64.82551397955005 73.04812383246659 -6.3611093629270335e-15 -3.1805546814635168e-15 -1.5902773407317584e-15 10.712168449259392 -6.8853249501051925 12.127263638074972 -5.562445495167899 32.2500032634338 19.368520853647176 -85.12942354797792 -63.366913708828385 -115.24687574129871 9.54166404439055e-15 0.0 0.0
32.0 -12.0 160.39999389648438 -5.237469319562698 1.9012306885932264 -89.46056980064218 2.79596867453953 -0.7505950710137933 0.025570968735326095 3.2299908842275747e-07 -2.9698814114318836e-08 1.9513685593232373 94.21509950410237 -11.23884060153867 170.85080000066168 -7.339999099876392e-06 3.5110146614926255e-06 30.97261749605431 179.99998018646858 -83.37978690214324 -153.3605994252036 0.0 0.0 4.770832022195277e-15 -96.27730763596819 -15.967055612755807 -173.67996263149658 2.813469634424904e-06 -3.349609519791494e-07 -27.487545665524014 -179.99999543975687 -62.031975659335835 157.15128089248495 -6.3611093629270335e-15 -2.2069531490250793e-32 3.975693351829396e-16 -2.7657342590772402 3.9066600253656163 -18.001294448816484 -0.4737166555565722 8.386958833647281 -4.7994567084629915 46.06789206225451 -65.17488948470576 74.25019927631806 6.3611093629270335e-15 3.1805546814635168e-15 4.770832022195275e-15 11.212949370414945 -6.849419670995603 12.046792641880497 -5.747891447757045 32.2208798008298 19.603973616914143 -85.11033263839046 -63.47872266395616 -115.52959085678985 4.770832022195275e-15 2.648343778830095e-31 6.3611093629270335e-15
32.0 -12.0 160.39999389648438 -5.237469399411758 1.4261341935970226 -89.46062843634769 1.9602695630245062 -0.7427891583611258 0.020628355831204658 4.263898810502368e-07 -5.523341983583308e-07 1.970248894420288 94.58558586357148 -10.191510565591438 170.87959810416567 9.459905497700493e-07 -9.652646142215985e-07 30.699601488815077 -179.99997526953646 -82.2783434597831 -154.8264902501037 2.3854160110976384e-15 -1.5902773407317588e-15 -3.1805546814635176e-15 -95.8900622415482 -15.687674675568687 -173.50226523386684 -2.259338454577958e-06 -2.3175905106976156e-06 -27.855209960428034 179.99999499047826 -61.8249548657739 157.1230925819349 0.0 0.0 -3.1805546814635168e-15 -3.240504628668952 4.078499128666599 -18.465289903194034 -0.489230803455703 8.223987814328718 -4.685690335827717 45.84169223462136 -65.27040078932531 73.90827836416835 0.0 0.0 0.0 10.741638405545245 -6.688619269475943 12.501945898171554 -5.49041463315873 32.11420163789505 19.366957180255774 -85.1636623358822 -63.163772186308265 -115.4553629207975 -7.95138670365879e-15 2.2069531490250793e-31 -3.1805546814635164e-15
32.0 -12.0 160.39999389648438 -5.23746899345462 1.4261344259344233 -89.44057382634337 1.9581045846467153 -0.9227625633450662 0.02913179279450982 -6.248094209413999e-08 1.7528598738221706e-07 1.742845053077223 94.62075510725097 -9.63472751781864 170.69271456971126 -5.029353795417116e-06 -5.3802667223883665e-06 30.56947353636157 179.99998803354487 -80.46296521691042 -151.359723340684 1.987846675914698e-15 -1.5902773407317584e-15 1.5902773407317584e-15 -95.90386432115264 -16.06788610138704 -173.53317558783633 1.8829439937540442e-07 -3.3680932366383643e-06 -27.67846256366734 -179.999997268324 -62.42982334417423 155.25476966946437 0.0 0.0 1.5902773407317584e-15 -3.253241268522828 3.9083756929522293 -18.36805923891377 -0.6927165720669644 8.479638422381466 -4.851816231154224 47.00213628023411 -64.91267244522214 75.22820429959884 0.0 3.1805546814635168e-15 0.0 10.73932678432409 -6.692357343310066 12.48210550776141 -5.49041463315873 32.11420163789505 19.366957180255774 -85.1636623358822 -63.163772186308265 -115.4553629207975 -7.95138670365879e-15 2.2069531490250793e-31 -3.1805546814635164e-15
32.0 -12.0 160.39999389648438 -5.23746899345462 1.4261344259344233 -89.44057382634337 1.9581045846467153 -0.9227625633450662 0.02913179279450982 -1.3558677648699144e-07 2.670495955455762e-07 1.735798363366466 94.66745740968935 -9.2206443181753 170.51733531989535 -5.029649550515067e-06 2.074246530611583e-07 30.527903931107687 179.99998985370283 -78.8484922497809 -152.6367297700145 2.385416011097637e-15 -3.310429723537619e-32 -1.5902773407317582e-15 -95.79194344617666 -15.40094118885404 -173.56080581891453 -2.793619886840477e-06 -2.2608124207120533e-06 -27.366499490969755 -179.99999307416883 -62.695907465920236 157.36717442484652 0.0 0.0 7.951386703658792e-16 -3.420909785729988 3.9090605037838526 -18.32594844743423 -0.3943041294177998 8.57705574333559 -4.934384950889964 47.00780705467138 -64.92766337505994 75.37696989816911 0.0 3.1805546814635168e-15 0.0 10.576508413376155 -6.850264196245209 12.399231514721436 -5.151935150360832 32.325388479514224 19.372009154707374 -85.78933654437496 -63.115276626281215 -115.93778489455357 -6.361109362927035e-15 3.1805546814635183e-15 -6.361109362927035e-15
32.0 -12.0 160.39999389648438 -5.237469076848143 1.4261339201625727 -89.66124509808527 1.9616425019009014 -0.915215086025141 0.02918616551810849 -3.32265872702432e-07 8.020917384316454e-07 1.7900339994629617 94.85064079749229 -9.062604427424938 170.51391423483102 1.2362695483060931e-07 -7.274352022910176e-08 30.227527839284477 -179.99997735092614 -81.64409484611954 -153.94336844076096 2.782985346280577e-15 -7.724336021587778e-32 -3.1805546814635168e-15 -95.960952134956 -15.798253003075674 -173.56608047590305 1.4545441307520746e-06 -2.0236813966491674e-06 -27.607860720184792 179.99999608536203 -61.95879235135791 157.33833953760384 0.0 0.0 3.1805546814635164e-15 -3.435937720161372 3.8958685350852393 -18.474176503641363 -0.4953986870500351 8.706843297654528 -4.978474052221796 47.87458563339117 -64.70206575597082 76.12750044030285 0.0 0.0 1.5902773407317584e-15 10.761349335182956 -6.807600630416058 12.540011659971936 -5.36907038944389 32.34869580847968 19.28566618834387 -85.75963272772306 -63.31834151596995 -115.73392732619027 -3.1805546814635168e-15 -1.7655625192200634e-31 6.3611093629270335e-15
31.900001525878906 -12.0 160.39999389648438 -5.710578784851227 1.4250062994780794 -89.64925063312154 1.9619005973478663 -0.6217034513768153 0.01985710018547173 1.6654997986644898e-07 -2.803174509910482e-07 1.769161664537617 94.88605046065048 -8.73227806587712 170.3409240950127 -9.573222687971637e-07 3.4866512058170424e-06 29.80991985850438 179.99999083750336 -80.20249230918513 -155.19839504315982 2.2069531490250793e-32 1.5902773407317588e-15 -1.5902773407317588e-15 -95.756919168308 -15.460815688800457 -173.39915979193142 4.524392814962511e-07 -5.27375091969201e-06 -27.551492769024886 -179.99999647224558 -63.149053933851384 155.4707679574678 0.0 0.0 -1.1927080055488186e-15 -3.268483059616092 4.368033352924653 -18.242152973589917 -0.44123074480444874 8.569005074129768 -4.98891214194051 47.24031729407059 -64.82831287423986 75.94166168355424 -1.2722218725854067e-14 3.1805546814635164e-15 3.1805546814635168e-15 10.75286603248538 -6.342991955821351 12.078543559724212 -5.603684853966335 32.31309440486616 19.41010301242266 -85.71279748995944 -63.63171127157366 -115.8137311061476 0.0 -3.1805546814635168e-15 0.0
31.900001525878906 -12.0 160.39999389648438 -5.710578784851227 1.4250062994780794 -89.64925063312154 1.9634759884727684 -0.6416135580884437 0.020514931002553808 2.3600613067039407e-07 -1.804963077395549e-07 1.786972203888218 94.90399218446593 -9.577575753014864 170.12447536449258 3.730720685763064e-06 -5.1303676108961635e-06 29.756162771395786 -179.99996359403437 -82.4225330433721 -151.7939152085915 8.74652537402467e-15 -1.2138242319637935e-31 -1.5902773407317584e-15 -95.82618770814231 -16.20839584362711 -173.34661984037552 -2.5715932999514056e-06 -5.433623901777962e-06 -27.671589728589666 -179.9999952515233 -62.480641214091186 155.25503988974654 0.0 0.0 -3.975693351829396e-16 -3.268135954970453 4.200185398777317 -18.147063316668024 -0.5244278511325525 8.86189005629548 -5.150949255471595 48.318789240168115 -64.49877366655399 77.02632007425409 -2.2069531490250793e-31 -3.1805546814635168e-15 -7.951386703658792e-15 10.594129303334682 -6.344857580992315 12.077491131887093 -5.277729211840684 32.25595597329477 19.265225136947574 -85.68276387538542 -63.66332399594156 -115.64883818050541 0.0 -3.1805546814635168e-15 0.0
